<?xml version="1.0" standalone="no"?>
<!DOCTYPE svg PUBLIC "-//W3C//DTD SVG 20010904//EN"
 "http://www.w3.org/TR/2001/REC-SVG-20010904/DTD/svg10.dtd">
<svg version="1.0" xmlns="http://www.w3.org/2000/svg"
 width="409.000000pt" height="581.000000pt" viewBox="0 0 409.000000 581.000000"
 preserveAspectRatio="xMidYMid meet">

<g transform="translate(0.000000,581.000000) scale(0.100000,-0.100000)"
fill="#000000" stroke="none">
<path d="M1870 5040 c-89 -12 -227 -49 -316 -87 -112 -47 -193 -101 -284 -188
-41 -39 -109 -94 -150 -121 -210 -137 -420 -353 -580 -594 -219 -331 -357
-713 -417 -1150 -24 -178 -22 -533 5 -735 126 -945 673 -1699 1411 -1945 265
-89 583 -104 856 -40 786 183 1404 950 1549 1925 63 422 26 903 -101 1300 -98
308 -257 611 -433 825 -103 126 -298 314 -397 381 -12 8 -42 42 -66 75 -102
139 -303 266 -503 319 -153 41 -413 56 -574 35z m1429 -910 c407 -509 596
-1236 505 -1950 -29 -232 -83 -439 -169 -655 -81 -203 -73 -195 -145 -140
-210 161 -593 337 -861 395 l-56 13 -7 86 c-6 74 -4 87 10 96 266 159 416 386
458 695 6 42 9 46 53 64 93 39 169 131 216 263 91 253 19 504 -170 590 -49 23
-54 27 -49 51 3 15 11 110 17 212 10 170 8 263 -7 440 l-6 65 72 -70 c39 -38
102 -108 139 -155z m-2396 75 c-21 -101 -12 -305 21 -461 14 -67 28 -128 31
-135 3 -9 -14 -25 -46 -44 -60 -36 -99 -82 -136 -162 -55 -118 -41 -319 32
-472 38 -79 125 -175 174 -192 27 -9 29 -15 36 -77 16 -148 87 -326 179 -449
63 -84 142 -154 242 -215 93 -56 92 -56 78 -160 l-6 -45 -57 -13 c-139 -30
-344 -106 -516 -190 -169 -83 -234 -122 -355 -212 l-50 -38 -16 25 c-28 43
-113 264 -149 387 -79 270 -108 482 -109 788 0 182 4 254 22 375 75 509 269
951 565 1288 38 43 70 77 72 75 2 -2 -4 -34 -12 -73z m531 -46 c71 -215 317
-380 698 -468 179 -42 538 -80 756 -81 l42 0 0 -175 0 -175 -32 0 c-19 0 -41
-9 -55 -22 l-23 -21 0 99 c0 114 -16 154 -83 208 l-39 31 -203 0 -203 0 -39
-31 c-46 -37 -83 -105 -83 -155 l0 -36 -52 18 c-63 22 -129 24 -190 6 l-45
-14 -11 53 c-14 67 -51 117 -106 143 -38 19 -61 21 -214 21 -188 0 -216 -6
-265 -56 -54 -54 -61 -78 -65 -230 -5 -170 6 -235 50 -288 54 -66 89 -76 276
-76 177 0 212 8 265 58 46 43 60 81 66 176 5 80 8 91 32 108 32 24 125 34 171
19 63 -21 82 -51 89 -148 6 -72 11 -92 35 -126 16 -22 49 -51 73 -64 41 -21
55 -23 216 -23 161 0 175 2 216 23 66 35 102 93 107 172 2 36 6 65 8 65 2 0
13 -9 24 -20 11 -11 33 -20 51 -20 l32 0 -6 -45 c-21 -149 -131 -297 -258
-348 -145 -57 -195 -62 -654 -62 -396 0 -425 2 -511 22 -174 41 -274 113 -336
241 -41 85 -44 130 -29 519 l11 291 52 54 c59 59 126 179 179 321 18 48 33 87
35 87 1 0 9 -23 18 -51z m1682 -688 c77 -47 116 -136 116 -261 0 -142 -63
-289 -152 -355 l-35 -26 -3 218 c-4 230 12 443 32 443 6 0 25 -9 42 -19z
m-2104 -62 c16 -57 17 -89 12 -279 -4 -118 -9 -230 -13 -249 l-7 -35 -34 35
c-76 77 -120 200 -121 337 0 68 5 93 27 142 27 60 86 124 107 117 6 -2 19 -32
29 -68z m715 31 c18 -11 36 -32 40 -47 5 -15 8 -91 8 -168 0 -204 -11 -215
-228 -215 -205 0 -217 13 -217 222 0 88 5 157 11 172 21 45 60 56 214 56 122
0 144 -3 172 -20z m960 -13 c28 -27 28 -28 31 -180 3 -171 -3 -192 -58 -219
-28 -14 -60 -18 -160 -17 -220 1 -232 14 -228 240 4 208 6 210 235 206 152 -2
153 -2 180 -30z m-290 -890 c48 -26 67 -61 67 -122 0 -73 -36 -141 -98 -182
-72 -49 -102 -51 -231 -13 l-112 32 -113 -33 c-103 -30 -115 -32 -158 -20 -64
16 -112 57 -145 122 -52 99 -23 198 66 227 20 7 154 10 362 9 295 -2 333 -4
362 -20z m61 -779 c-3 -154 -5 -166 -30 -219 -34 -67 -96 -132 -160 -165 -96
-49 -320 -55 -435 -12 -69 25 -146 100 -181 175 -25 54 -27 69 -30 217 l-4
159 39 -7 c141 -25 184 -28 412 -23 181 3 259 9 296 20 28 8 61 16 73 16 l24
1 -4 -162z m192 -120 c0 -11 -7 -48 -16 -82 -47 -184 -193 -328 -376 -371 -74
-17 -337 -20 -419 -5 -147 28 -288 137 -353 273 -34 70 -66 191 -54 202 3 3
21 8 40 11 l35 6 12 -62 c34 -174 152 -312 308 -360 94 -29 332 -29 426 0 157
48 276 189 309 365 l12 62 38 -10 c28 -7 38 -15 38 -29z m-1316 -94 c54 -228
217 -402 441 -470 87 -27 442 -27 530 0 172 52 309 166 387 322 25 50 51 121
58 158 13 65 15 67 39 61 57 -14 262 -100 361 -152 121 -63 329 -198 337 -219
7 -20 -149 -251 -239 -354 -221 -252 -475 -429 -745 -520 -298 -99 -627 -99
-927 1 -307 102 -608 330 -830 628 -92 124 -160 236 -151 250 11 19 228 158
325 209 110 58 351 159 386 161 6 1 18 -33 28 -75z"/>
<path d="M1826 2844 c-12 -31 -6 -72 15 -98 l20 -26 163 0 c150 0 164 2 181
20 25 27 26 98 2 114 -22 14 -49 -2 -57 -35 -6 -23 -9 -24 -123 -27 l-116 -3
-15 36 c-11 26 -21 35 -39 35 -14 0 -28 -7 -31 -16z"/>
<path d="M1510 3351 c-53 -17 -91 -43 -116 -81 -30 -46 -42 -113 -24 -135 27
-32 80 -6 80 40 0 31 43 81 76 88 39 7 92 -11 106 -36 7 -12 17 -37 23 -56 20
-68 77 -67 83 2 5 56 -42 133 -98 162 -34 17 -100 25 -130 16z"/>
<path d="M2450 3348 c-49 -14 -97 -53 -120 -98 -35 -69 -21 -137 27 -128 17 3
32 26 53 84 14 38 49 58 97 57 43 -1 77 -32 95 -87 24 -73 80 -75 86 -3 6 73
-59 153 -143 176 -46 13 -48 13 -95 -1z"/>
<path d="M1786 2434 c-23 -22 -20 -36 12 -66 43 -42 73 -48 225 -48 117 0 149
4 183 19 52 24 77 57 63 83 -16 31 -37 32 -70 4 -30 -25 -34 -26 -174 -26
-138 0 -145 1 -173 25 -35 29 -45 31 -66 9z"/>
</g>
</svg>
